<?xml version="1.0" encoding="utf-8"?>
<!-- Generator: Adobe Illustrator 27.9.5, SVG Export Plug-In . SVG Version: 9.03 Build 54986)  -->
<svg version="1.1" id="Ebene_1" xmlns="http://www.w3.org/2000/svg" xmlns:xlink="http://www.w3.org/1999/xlink" x="0px" y="0px"
	 viewBox="0 0 172.5 56.1" style="enable-background:new 0 0 172.5 56.1;" xml:space="preserve">
<style type="text/css">
	.st0{fill:#FFD400;}
	.st1{fill:#EDEDED;}
	.st2{enable-background:new    ;}
	.st3{fill:#373F50;}
</style>
<polygon class="st0" points="94.3,0.8 91.8,6 86.1,6.7 90.3,10.6 89.2,16.3 94.3,13.5 99.3,16.3 98.2,10.6 102.4,6.7 96.7,6 "/>
<polygon class="st0" points="70.9,0.8 68.4,6 62.7,6.7 66.9,10.6 65.8,16.3 70.9,13.5 75.9,16.3 74.8,10.6 79,6.7 73.3,6 "/>
<polygon class="st0" points="117.6,0.8 115.2,6 109.5,6.7 113.7,10.6 112.6,16.3 117.6,13.5 122.7,16.3 121.6,10.6 125.8,6.7 
	120.1,6 "/>
<polygon class="st0" points="141,0.8 138.6,6 132.9,6.7 137.1,10.6 136,16.3 141,13.5 146,16.3 145,10.6 149.2,6.7 143.5,6 "/>
<polygon class="st1" points="162,6 156.3,6.7 160.4,10.6 159.4,16.3 164.4,13.5 169.4,16.3 168.3,10.6 172.5,6.7 166.8,6 164.4,0.8 
	"/>
<polygon class="st0" points="162,6 156.3,6.7 160.4,10.6 159.4,16.3 164.4,13.5 164.4,13.5 164.4,0.9 164.4,0.8 "/>
<g>
	<g class="st2">
		<path class="st3" d="M0.6,13.2v-1l6.6-8.8h1.5v8.7h1.9v1.1H8.7v3.1H7.4v-3.1H0.6z M7.5,4.8l-5.4,7.3h5.4V4.8z"/>
		<path class="st3" d="M13.6,14.2l-1.9,4.7h-0.9l1.3-4.7H13.6z"/>
		<path class="st3" d="M23.5,4.5h-6.6v4.6c0.3-0.4,0.7-0.8,1.3-1c0.6-0.3,1.2-0.4,1.9-0.4c1,0,1.8,0.2,2.4,0.6
			c0.6,0.4,1.1,0.9,1.4,1.6c0.3,0.6,0.4,1.3,0.4,2.1c0,0.8-0.2,1.6-0.5,2.3c-0.3,0.7-0.8,1.2-1.5,1.6c-0.7,0.4-1.5,0.6-2.4,0.6
			c-1.2,0-2.2-0.3-3-1c-0.8-0.6-1.2-1.5-1.4-2.6h1.2c0.2,0.8,0.5,1.4,1.1,1.8c0.6,0.4,1.3,0.6,2.1,0.6c1,0,1.8-0.3,2.4-0.9
			c0.5-0.6,0.8-1.4,0.8-2.5c0-1-0.3-1.8-0.8-2.3c-0.5-0.6-1.3-0.8-2.3-0.8c-0.7,0-1.3,0.2-1.8,0.5c-0.5,0.3-0.9,0.8-1.2,1.3h-1.2
			V3.4h7.8V4.5z"/>
	</g>
	<g class="st2">
		<path class="st3" d="M8.8,38.6c-0.3-0.6-0.7-1.2-1.3-1.5c-0.6-0.4-1.2-0.6-2-0.6c-0.7,0-1.4,0.2-2,0.5c-0.6,0.3-1,0.8-1.4,1.4
			c-0.3,0.6-0.5,1.3-0.5,2.2c0,0.8,0.2,1.5,0.5,2.2c0.3,0.6,0.8,1.1,1.4,1.4c0.6,0.3,1.2,0.5,2,0.5c0.7,0,1.3-0.1,1.8-0.4
			s1-0.7,1.3-1.3c0.3-0.5,0.5-1.2,0.6-1.9H5.1v-0.8h5.2v0.7c0,0.9-0.3,1.6-0.7,2.3c-0.4,0.7-1,1.2-1.7,1.6c-0.7,0.4-1.5,0.6-2.4,0.6
			c-0.9,0-1.7-0.2-2.5-0.6s-1.3-1-1.7-1.8c-0.4-0.8-0.6-1.6-0.6-2.6c0-1,0.2-1.8,0.6-2.6c0.4-0.8,1-1.4,1.7-1.8s1.6-0.6,2.5-0.6
			c1,0,2,0.3,2.7,0.8C9,37,9.6,37.7,10,38.6H8.8z"/>
		<path class="st3" d="M13.5,45.2c-0.6-0.3-1-0.8-1.4-1.4c-0.3-0.6-0.5-1.3-0.5-2.1c0-0.8,0.2-1.5,0.5-2.1c0.3-0.6,0.8-1,1.4-1.4
			c0.6-0.3,1.2-0.5,1.9-0.5c0.7,0,1.4,0.2,2,0.5c0.6,0.3,1,0.8,1.4,1.4c0.3,0.6,0.5,1.3,0.5,2.1c0,0.8-0.2,1.5-0.5,2.1
			s-0.8,1.1-1.4,1.4c-0.6,0.3-1.2,0.5-2,0.5S14,45.5,13.5,45.2z M16.8,44.5c0.4-0.2,0.8-0.6,1-1c0.3-0.5,0.4-1,0.4-1.7
			s-0.1-1.2-0.4-1.7c-0.3-0.5-0.6-0.8-1-1s-0.9-0.3-1.4-0.3s-1,0.1-1.4,0.3c-0.4,0.2-0.8,0.6-1,1c-0.3,0.5-0.4,1-0.4,1.7
			s0.1,1.2,0.4,1.7s0.6,0.8,1,1c0.4,0.2,0.9,0.3,1.4,0.3C15.9,44.8,16.4,44.7,16.8,44.5z"/>
		<path class="st3" d="M22.5,45.2c-0.6-0.3-1-0.8-1.4-1.4c-0.3-0.6-0.5-1.3-0.5-2.1c0-0.8,0.2-1.5,0.5-2.1c0.3-0.6,0.8-1,1.4-1.4
			c0.6-0.3,1.2-0.5,1.9-0.5c0.7,0,1.4,0.2,2,0.5c0.6,0.3,1,0.8,1.4,1.4c0.3,0.6,0.5,1.3,0.5,2.1c0,0.8-0.2,1.5-0.5,2.1
			s-0.8,1.1-1.4,1.4c-0.6,0.3-1.2,0.5-2,0.5S23,45.5,22.5,45.2z M25.8,44.5c0.4-0.2,0.8-0.6,1-1c0.3-0.5,0.4-1,0.4-1.7
			s-0.1-1.2-0.4-1.7c-0.3-0.5-0.6-0.8-1-1s-0.9-0.3-1.4-0.3s-1,0.1-1.4,0.3c-0.4,0.2-0.8,0.6-1,1c-0.3,0.5-0.4,1-0.4,1.7
			s0.1,1.2,0.4,1.7s0.6,0.8,1,1c0.4,0.2,0.9,0.3,1.4,0.3C24.9,44.8,25.4,44.7,25.8,44.5z"/>
		<path class="st3" d="M35.1,38.3c0.5,0.3,0.9,0.8,1.1,1.3v-1.7h1v7.8c0,0.7-0.2,1.3-0.5,1.9c-0.3,0.5-0.7,1-1.3,1.3
			c-0.5,0.3-1.2,0.4-1.8,0.4c-1,0-1.8-0.2-2.4-0.7s-1.1-1.1-1.2-1.9h1c0.2,0.5,0.5,1,1,1.3s1,0.5,1.7,0.5c0.5,0,0.9-0.1,1.3-0.3
			c0.4-0.2,0.7-0.5,0.9-0.9c0.2-0.4,0.3-0.9,0.3-1.5v-1.9c-0.2,0.5-0.6,1-1.2,1.3c-0.5,0.3-1.2,0.5-1.9,0.5c-0.7,0-1.3-0.2-1.9-0.5
			s-1-0.8-1.3-1.4c-0.3-0.6-0.5-1.3-0.5-2.1s0.2-1.5,0.5-2.1c0.3-0.6,0.7-1,1.3-1.4c0.6-0.3,1.2-0.5,1.9-0.5
			C34,37.8,34.6,38,35.1,38.3z M35.9,40.1c-0.3-0.5-0.6-0.8-1-1.1s-0.9-0.4-1.4-0.4c-0.5,0-1,0.1-1.5,0.4c-0.4,0.2-0.8,0.6-1,1.1
			c-0.2,0.5-0.4,1-0.4,1.6c0,0.6,0.1,1.2,0.4,1.6c0.2,0.5,0.6,0.8,1,1.1c0.4,0.2,0.9,0.4,1.5,0.4c0.5,0,1-0.1,1.4-0.4s0.8-0.6,1-1.1
			s0.4-1,0.4-1.6S36.1,40.6,35.9,40.1z"/>
		<path class="st3" d="M40.5,35.2v10.4h-1V35.2H40.5z"/>
		<path class="st3" d="M49.6,42.1h-6.3c0,0.6,0.2,1.1,0.4,1.5c0.3,0.4,0.6,0.7,1,0.9c0.4,0.2,0.9,0.3,1.3,0.3c0.6,0,1.2-0.2,1.6-0.5
			c0.4-0.3,0.7-0.7,0.9-1.2h1c-0.2,0.7-0.6,1.4-1.2,1.8c-0.6,0.5-1.4,0.7-2.3,0.7c-0.7,0-1.4-0.2-1.9-0.5c-0.6-0.3-1-0.8-1.3-1.4
			c-0.3-0.6-0.5-1.3-0.5-2.1c0-0.8,0.2-1.5,0.5-2.1c0.3-0.6,0.8-1.1,1.3-1.4s1.2-0.5,1.9-0.5s1.4,0.2,1.9,0.5s1,0.7,1.3,1.3
			c0.3,0.5,0.4,1.1,0.4,1.8C49.6,41.7,49.6,41.9,49.6,42.1z M48.3,39.9c-0.2-0.4-0.6-0.7-1-0.9c-0.4-0.2-0.9-0.3-1.3-0.3
			c-0.7,0-1.3,0.2-1.9,0.7s-0.8,1.1-0.9,2h5.4C48.6,40.7,48.5,40.3,48.3,39.9z"/>
		<path class="st3" d="M60.5,45.6L56.2,41v4.5h-1v-9.8h1v4.6l4.2-4.6h1.2l-4.6,4.9l4.6,4.9H60.5z"/>
		<path class="st3" d="M69.8,37.9v7.6h-1v-1.3c-0.2,0.5-0.6,0.8-1,1.1c-0.5,0.3-1,0.4-1.6,0.4c-0.9,0-1.7-0.3-2.2-0.8
			s-0.9-1.4-0.9-2.5v-4.5h1v4.4c0,0.8,0.2,1.5,0.6,1.9c0.4,0.4,1,0.7,1.7,0.7c0.7,0,1.3-0.2,1.8-0.7c0.4-0.5,0.7-1.2,0.7-2.1v-4.2
			H69.8z"/>
		<path class="st3" d="M77.9,38.6c0.6,0.6,0.9,1.4,0.9,2.5v4.5h-1v-4.4c0-0.8-0.2-1.5-0.6-1.9c-0.4-0.4-1-0.7-1.7-0.7
			c-0.7,0-1.3,0.2-1.8,0.7c-0.4,0.5-0.7,1.2-0.7,2.1v4.2h-1v-7.6h1v1.3c0.2-0.5,0.6-0.8,1-1.1s1-0.4,1.6-0.4
			C76.6,37.8,77.3,38.1,77.9,38.6z"/>
		<path class="st3" d="M80.9,39.7c0.3-0.6,0.8-1,1.3-1.4c0.6-0.3,1.2-0.5,1.9-0.5c0.7,0,1.3,0.2,1.8,0.5c0.5,0.3,0.9,0.8,1.2,1.3
			v-4.4h1v10.4h-1v-1.7c-0.2,0.5-0.6,1-1.1,1.3c-0.5,0.3-1.2,0.5-1.9,0.5c-0.7,0-1.3-0.2-1.9-0.5s-1-0.8-1.3-1.4
			c-0.3-0.6-0.5-1.3-0.5-2.1S80.6,40.3,80.9,39.7z M86.8,40.1c-0.3-0.5-0.6-0.8-1-1.1s-0.9-0.4-1.4-0.4c-0.5,0-1,0.1-1.5,0.4
			c-0.4,0.2-0.8,0.6-1,1.1c-0.2,0.5-0.4,1-0.4,1.6c0,0.6,0.1,1.2,0.4,1.6c0.2,0.5,0.6,0.8,1,1.1c0.4,0.2,0.9,0.4,1.5,0.4
			c0.5,0,1-0.1,1.4-0.4s0.8-0.6,1-1.1s0.4-1,0.4-1.6S87,40.6,86.8,40.1z"/>
		<path class="st3" d="M97.3,42.1h-6.3c0,0.6,0.2,1.1,0.4,1.5c0.3,0.4,0.6,0.7,1,0.9c0.4,0.2,0.9,0.3,1.3,0.3c0.6,0,1.2-0.2,1.6-0.5
			c0.4-0.3,0.7-0.7,0.9-1.2h1C97,43.9,96.6,44.5,96,45c-0.6,0.5-1.4,0.7-2.3,0.7c-0.7,0-1.4-0.2-1.9-0.5c-0.6-0.3-1-0.8-1.3-1.4
			c-0.3-0.6-0.5-1.3-0.5-2.1c0-0.8,0.2-1.5,0.5-2.1c0.3-0.6,0.8-1.1,1.3-1.4s1.2-0.5,1.9-0.5c0.7,0,1.4,0.2,1.9,0.5s1,0.7,1.3,1.3
			c0.3,0.5,0.4,1.1,0.4,1.8C97.3,41.7,97.3,41.9,97.3,42.1z M95.9,39.9c-0.2-0.4-0.6-0.7-1-0.9c-0.4-0.2-0.9-0.3-1.3-0.3
			c-0.7,0-1.3,0.2-1.9,0.7c-0.5,0.5-0.8,1.1-0.9,2h5.4C96.3,40.7,96.2,40.3,95.9,39.9z"/>
		<path class="st3" d="M104.9,38.6c0.6,0.6,0.9,1.4,0.9,2.5v4.5h-1v-4.4c0-0.8-0.2-1.5-0.6-1.9c-0.4-0.4-1-0.7-1.7-0.7
			c-0.7,0-1.3,0.2-1.8,0.7c-0.4,0.5-0.7,1.2-0.7,2.1v4.2h-1v-7.6h1v1.3c0.2-0.5,0.6-0.8,1-1.1c0.5-0.2,1-0.4,1.6-0.4
			C103.6,37.8,104.3,38.1,104.9,38.6z"/>
		<path class="st3" d="M109.9,38.2c0.4-0.3,1-0.4,1.6-0.4v1h-0.3c-0.7,0-1.3,0.2-1.7,0.6c-0.4,0.4-0.6,1-0.6,1.9v4.3h-1v-7.6h1v1.4
			C109.1,38.8,109.5,38.4,109.9,38.2z"/>
		<path class="st3" d="M119.9,42.1h-6.3c0,0.6,0.2,1.1,0.4,1.5c0.3,0.4,0.6,0.7,1,0.9c0.4,0.2,0.9,0.3,1.3,0.3
			c0.6,0,1.2-0.2,1.6-0.5c0.4-0.3,0.7-0.7,0.9-1.2h1c-0.2,0.7-0.6,1.4-1.2,1.8c-0.6,0.5-1.4,0.7-2.3,0.7c-0.7,0-1.4-0.2-1.9-0.5
			c-0.6-0.3-1-0.8-1.3-1.4c-0.3-0.6-0.5-1.3-0.5-2.1c0-0.8,0.2-1.5,0.5-2.1c0.3-0.6,0.8-1.1,1.3-1.4s1.2-0.5,1.9-0.5
			c0.7,0,1.4,0.2,1.9,0.5s1,0.7,1.3,1.3c0.3,0.5,0.4,1.1,0.4,1.8C119.9,41.7,119.9,41.9,119.9,42.1z M118.6,39.9
			c-0.2-0.4-0.6-0.7-1-0.9c-0.4-0.2-0.9-0.3-1.3-0.3c-0.7,0-1.3,0.2-1.9,0.7c-0.5,0.5-0.8,1.1-0.9,2h5.4
			C118.9,40.7,118.8,40.3,118.6,39.9z"/>
		<path class="st3" d="M122.2,44.7h4v0.8h-5.1v-0.8l3.9-6h-3.9v-0.8h5v0.8L122.2,44.7z"/>
		<path class="st3" d="M134.8,42.1h-6.3c0,0.6,0.2,1.1,0.4,1.5c0.3,0.4,0.6,0.7,1,0.9c0.4,0.2,0.9,0.3,1.3,0.3
			c0.6,0,1.2-0.2,1.6-0.5c0.4-0.3,0.7-0.7,0.9-1.2h1c-0.2,0.7-0.6,1.4-1.2,1.8c-0.6,0.5-1.4,0.7-2.3,0.7c-0.7,0-1.4-0.2-1.9-0.5
			c-0.6-0.3-1-0.8-1.3-1.4c-0.3-0.6-0.5-1.3-0.5-2.1c0-0.8,0.2-1.5,0.5-2.1c0.3-0.6,0.8-1.1,1.3-1.4s1.2-0.5,1.9-0.5
			c0.7,0,1.4,0.2,1.9,0.5s1,0.7,1.3,1.3c0.3,0.5,0.4,1.1,0.4,1.8C134.8,41.7,134.8,41.9,134.8,42.1z M133.5,39.9
			c-0.2-0.4-0.6-0.7-1-0.9c-0.4-0.2-0.9-0.3-1.3-0.3c-0.7,0-1.3,0.2-1.9,0.7c-0.5,0.5-0.8,1.1-0.9,2h5.4
			C133.8,40.7,133.7,40.3,133.5,39.9z"/>
		<path class="st3" d="M142.4,38.6c0.6,0.6,0.9,1.4,0.9,2.5v4.5h-1v-4.4c0-0.8-0.2-1.5-0.6-1.9c-0.4-0.4-1-0.7-1.7-0.7
			c-0.7,0-1.3,0.2-1.8,0.7c-0.4,0.5-0.7,1.2-0.7,2.1v4.2h-1v-7.6h1v1.3c0.2-0.5,0.6-0.8,1-1.1c0.5-0.2,1-0.4,1.6-0.4
			C141.1,37.8,141.8,38.1,142.4,38.6z"/>
		<path class="st3" d="M145.9,45.1c-0.6-0.4-0.9-1-0.9-1.7h1c0,0.4,0.2,0.8,0.6,1c0.4,0.3,0.8,0.4,1.4,0.4c0.5,0,0.9-0.1,1.3-0.4
			c0.3-0.3,0.5-0.6,0.5-0.9c0-0.3-0.1-0.5-0.3-0.6s-0.4-0.3-0.6-0.4c-0.3-0.1-0.6-0.2-1-0.3c-0.6-0.1-1-0.3-1.4-0.4
			s-0.7-0.4-0.9-0.7c-0.2-0.3-0.4-0.7-0.4-1.2c0-0.4,0.1-0.7,0.3-1c0.2-0.3,0.5-0.6,1-0.8c0.4-0.2,0.9-0.3,1.4-0.3
			c0.8,0,1.5,0.2,2,0.6s0.8,1,0.8,1.7h-1c0-0.4-0.2-0.8-0.5-1.1c-0.3-0.3-0.8-0.4-1.3-0.4c-0.5,0-0.9,0.1-1.2,0.3
			c-0.3,0.2-0.5,0.5-0.5,0.9c0,0.3,0.1,0.5,0.3,0.7c0.2,0.2,0.4,0.3,0.7,0.4c0.3,0.1,0.6,0.2,1.1,0.4c0.5,0.1,1,0.3,1.3,0.4
			c0.3,0.1,0.6,0.3,0.8,0.6c0.2,0.3,0.4,0.6,0.4,1.1c0,0.4-0.1,0.8-0.3,1.1c-0.2,0.3-0.5,0.6-0.9,0.8c-0.4,0.2-0.9,0.3-1.4,0.3
			C147.2,45.7,146.5,45.5,145.9,45.1z"/>
		<path class="st3" d="M152.6,36.3c-0.1-0.1-0.2-0.3-0.2-0.5c0-0.2,0.1-0.4,0.2-0.5c0.1-0.1,0.3-0.2,0.5-0.2c0.2,0,0.4,0.1,0.5,0.2
			c0.1,0.1,0.2,0.3,0.2,0.5c0,0.2-0.1,0.4-0.2,0.5c-0.1,0.1-0.3,0.2-0.5,0.2C152.9,36.5,152.7,36.4,152.6,36.3z M153.6,37.9v7.6h-1
			v-7.6H153.6z"/>
		<path class="st3" d="M157.2,45.2c-0.6-0.3-1-0.8-1.4-1.4s-0.5-1.3-0.5-2.1c0-0.8,0.2-1.5,0.5-2.1c0.3-0.6,0.8-1,1.4-1.4
			c0.6-0.3,1.2-0.5,1.9-0.5s1.4,0.2,2,0.5c0.6,0.3,1,0.8,1.4,1.4c0.3,0.6,0.5,1.3,0.5,2.1c0,0.8-0.2,1.5-0.5,2.1s-0.8,1.1-1.4,1.4
			c-0.6,0.3-1.2,0.5-2,0.5S157.8,45.5,157.2,45.2z M160.5,44.5c0.4-0.2,0.8-0.6,1-1s0.4-1,0.4-1.7s-0.1-1.2-0.4-1.7
			c-0.3-0.5-0.6-0.8-1-1c-0.4-0.2-0.9-0.3-1.4-0.3s-1,0.1-1.4,0.3s-0.8,0.6-1,1c-0.3,0.5-0.4,1-0.4,1.7s0.1,1.2,0.4,1.7s0.6,0.8,1,1
			s0.9,0.3,1.4,0.3C159.7,44.8,160.1,44.7,160.5,44.5z"/>
		<path class="st3" d="M170.6,38.6c0.6,0.6,0.9,1.4,0.9,2.5v4.5h-1v-4.4c0-0.8-0.2-1.5-0.6-1.9c-0.4-0.4-1-0.7-1.7-0.7
			c-0.7,0-1.3,0.2-1.8,0.7c-0.4,0.5-0.7,1.2-0.7,2.1v4.2h-1v-7.6h1v1.3c0.2-0.5,0.6-0.8,1-1.1c0.5-0.2,1-0.4,1.6-0.4
			C169.3,37.8,170,38.1,170.6,38.6z"/>
	</g>
</g>
</svg>
